<?xml version="1.0" encoding="UTF-8" standalone="no"?>
<!-- Created with Inkscape (http://www.inkscape.org/) -->

<svg
   version="1.1"
   id="svg1"
   width="320"
   height="320"
   viewBox="0 0 320 320"
   sodipodi:docname="FROBERT.svg"
   inkscape:version="1.3.2 (091e20ef0f, 2023-11-25)"
   xmlns:inkscape="http://www.inkscape.org/namespaces/inkscape"
   xmlns:sodipodi="http://sodipodi.sourceforge.net/DTD/sodipodi-0.dtd"
   xmlns="http://www.w3.org/2000/svg"
   xmlns:svg="http://www.w3.org/2000/svg">
  <defs
     id="defs1" />
  <sodipodi:namedview
     id="namedview1"
     pagecolor="#ffffff"
     bordercolor="#000000"
     borderopacity="0.25"
     inkscape:showpageshadow="2"
     inkscape:pageopacity="0.0"
     inkscape:pagecheckerboard="0"
     inkscape:deskcolor="#d1d1d1"
     inkscape:zoom="2.53125"
     inkscape:cx="159.80247"
     inkscape:cy="160"
     inkscape:window-width="1920"
     inkscape:window-height="1014"
     inkscape:window-x="0"
     inkscape:window-y="0"
     inkscape:window-maximized="1"
     inkscape:current-layer="g1" />
  <g
     inkscape:groupmode="layer"
     inkscape:label="Image"
     id="g1">
    <path
       style="fill:#000000"
       d="m 50,300 v -20 h 5 5 v -10 -10 h 5 5 v -10 -10 h 5 5 v -15 -15 h -5 -5 v -10 -10 h -5 -5 v -30 -30 h 5 5 v -10 -10 h 5 5 V 95 80 h 5 5 V 70 60 h 5 5 v -5 -5 h 15 15 v 5 5 h 5 5 v 10 10 h 5 5 v 5 5 h 10 10 v -5 -5 h 5 5 V 70 60 h 5 5 v -5 -5 h 15 15 v 5 5 h 5 5 v 10 10 h 5 5 v 15 15 h 5 5 v 10 10 h 5 5 v 30 30 h -5 -5 v 10 10 h -5 -5 v 15 15 h 5 5 v 10 10 h 5 5 v 10 10 h 5 5 v 20 20 H 160 50 Z M 90,165 v -5 h 5 5 v -5 -5 h 60 60 v 5 5 h 5 5 v 5 5 h 5 5 v -5 -5 h 5 5 v -10 -10 h -5 -5 v -5 -5 h -5 -5 v 5 5 H 160 90 v -5 -5 h -5 -5 v 5 5 h -5 -5 v 10 10 h 5 5 v 5 5 h 5 5 z m 30,-50 v -5 h 5 5 V 90 70 h -5 -5 v -5 -5 h -5 -5 v 5 5 h -5 -5 v 20 20 h 5 5 v 5 5 h 5 5 z m 30,0 v -5 h -5 -5 v 5 5 h 5 5 z m 30,0 v -5 h -5 -5 v 5 5 h 5 5 z m 30,0 v -5 h 5 5 V 90 70 h -5 -5 v -5 -5 h -5 -5 v 5 5 h -5 -5 v 20 20 h 5 5 v 5 5 h 5 5 z"
       id="path1" />
    <path
       style="fill:#ffffff;stroke:#ffffff;stroke-width:0.395062"
       d="m 110.22222,114.76543 v -4.93827 h -4.93827 -4.93827 V 90.074074 70.320988 h 4.93827 4.93827 v -5.135803 -5.135802 h 4.74074 4.74074 v 5.135802 5.135803 h 5.13581 5.1358 v 19.753086 19.753086 h -5.1358 -5.13581 v 4.93827 4.93827 h -4.74074 -4.74074 z"
       id="path2" />
    <path
       style="fill:#ffffff;stroke:#ffffff;stroke-width:0.395062"
       d="m 200.2963,114.76543 v -4.93827 h -5.13581 -5.1358 V 90.074074 70.320988 h 5.1358 5.13581 v -5.135803 -5.135802 h 4.74074 4.74074 v 5.135802 5.135803 h 4.93827 4.93827 v 19.753086 19.753086 h -4.93827 -4.93827 v 4.93827 4.93827 h -4.74074 -4.74074 z"
       id="path3" />
    <path
       style="fill:#ffffff;stroke:#ffffff;stroke-width:0.395062"
       d="m 170.2716,114.96296 v -4.74074 h 4.74075 4.74074 v 4.74074 4.74074 h -4.74074 -4.74075 z"
       id="path4" />
    <path
       style="fill:#ffffff;stroke:#ffffff;stroke-width:0.395062"
       d="m 140.24691,114.96296 v -4.74074 h 4.74074 4.74075 v 4.74074 4.74074 h -4.74075 -4.74074 z"
       id="path5" />
    <path
       style="fill:#ffffff;stroke:#ffffff;stroke-width:0.395062"
       d="M 80.197531,164.93827 V 160 h -4.938272 -4.938271 v -9.87654 -9.87655 h 4.938271 4.938272 v -4.93827 -4.93827 h 4.740741 4.74074 v 4.93827 4.93827 H 160 230.32099 v -4.93827 -4.93827 h 4.74074 4.74074 v 4.93827 4.93827 h 4.93827 4.93827 V 150.12346 160 h -4.93827 -4.93827 v 4.93827 4.93827 h -4.74074 -4.74074 V 164.93827 160 h -5.1358 -5.13581 v -5.1358 -5.1358 H 160 99.950617 V 154.8642 160 h -5.135802 -5.135803 v 4.93827 4.93827 h -4.74074 -4.740741 z"
       id="path6" />
  </g>
</svg>
