<?xml version="1.0" encoding="UTF-8" standalone="no"?>
<!-- Created with Inkscape (http://www.inkscape.org/) -->

<svg
   version="1.1"
   id="svg1"
   width="320"
   height="320"
   viewBox="0 0 320 320"
   sodipodi:docname="MENTHE.svg"
   inkscape:version="1.3.2 (091e20ef0f, 2023-11-25)"
   xmlns:inkscape="http://www.inkscape.org/namespaces/inkscape"
   xmlns:sodipodi="http://sodipodi.sourceforge.net/DTD/sodipodi-0.dtd"
   xmlns="http://www.w3.org/2000/svg"
   xmlns:svg="http://www.w3.org/2000/svg">
  <defs
     id="defs1" />
  <sodipodi:namedview
     id="namedview1"
     pagecolor="#ffffff"
     bordercolor="#000000"
     borderopacity="0.25"
     inkscape:showpageshadow="2"
     inkscape:pageopacity="0.0"
     inkscape:pagecheckerboard="0"
     inkscape:deskcolor="#d1d1d1"
     inkscape:zoom="1.789864"
     inkscape:cx="109.78488"
     inkscape:cy="187.16505"
     inkscape:window-width="1920"
     inkscape:window-height="1014"
     inkscape:window-x="0"
     inkscape:window-y="0"
     inkscape:window-maximized="1"
     inkscape:current-layer="g1" />
  <g
     inkscape:groupmode="layer"
     inkscape:label="Image"
     id="g1">
    <path
       style="fill:#000000"
       d="m 50,300 v -20 h 5 5 v -10 -10 h 5 5 v -10 -10 h 5 5 v -15 -15 h -5 -5 v -10 -10 h -5 -5 v -30 -30 h 5 5 v -10 -10 h 5 5 V 100 90 h 5 5 v -5 -5 h 5 5 v -5 -5 h 5 5 v -5 -5 h 5 5 v 5 5 h 5 5 v 5 5 h 5 5 v 5 5 h 20 20 v -5 -5 h 5 5 v -5 -5 h 5 5 v -5 -5 h 5 5 v 5 5 h 5 5 v 5 5 h 5 5 v 5 5 h 5 5 v 10 10 h 5 5 v 10 10 h 5 5 v 30 30 h -5 -5 v 10 10 h -5 -5 v 15 15 h 5 5 v 10 10 h 5 5 v 10 10 h 5 5 v 20 20 H 160 50 Z m 90,-85 v -5 h 5 5 v 5 5 h 5 5 v -5 -5 h 5 5 v 5 5 h 5 5 v -5 -5 h 5 5 v -5 -5 h -5 -5 v 5 5 h -5 -5 v -5 -5 h -5 -5 v 5 5 h -5 -5 v -5 -5 h -5 -5 v 5 5 h -5 -5 v -5 -5 h -5 -5 v 5 5 h 5 5 v 5 5 h 5 5 z m -20,-40 v -5 h 5 5 v -15 -15 h -5 -5 v -5 -5 h -5 -5 v 5 5 h -5 -5 v 15 15 h 5 5 v 5 5 h 5 5 z m 90,0 v -5 h 5 5 v -15 -15 h -5 -5 v -5 -5 h -5 -5 v 5 5 h -5 -5 v 15 15 h 5 5 v 5 5 h 5 5 z"
       id="path1" />
    <path
       style="fill:#ffffff;fill-opacity:1;stroke:#ffffff;stroke-width:0.558702"
       d="m 110.06423,174.87362 v -5.02832 h -5.02832 -5.02831 v -14.80559 -14.80559 h 5.02831 5.02832 v -5.02832 -5.02831 h 4.74896 4.74896 v 5.02831 5.02832 h 5.02832 5.02831 v 14.80559 14.80559 h -5.02831 -5.02832 v 5.02832 5.02831 h -4.74896 -4.74896 z"
       id="path2" />
    <path
       style="fill:#ffffff;fill-opacity:1;stroke:#ffffff;stroke-width:0.558702"
       d="m 200.01519,174.87362 v -5.02832 h -4.74896 -4.74897 v -14.80559 -14.80559 h 4.74897 4.74896 v -5.02832 -5.02831 h 4.74897 4.74896 v 5.02831 5.02832 h 5.02832 5.02831 v 14.80559 14.80559 h -5.02831 -5.02832 v 5.02832 5.02831 h -4.74896 -4.74897 z"
       id="path3" />
    <path
       style="fill:#ffffff;fill-opacity:1;stroke:#ffffff;stroke-width:0.558702"
       d="m 180.46063,204.76416 v -4.74897 h 4.74897 4.74896 v 4.74897 4.74896 h -4.74896 -4.74897 z"
       id="path4" />
    <path
       style="fill:#ffffff;fill-opacity:1;stroke:#ffffff;stroke-width:0.558702"
       d="m 160.34737,204.76416 v -4.74897 h 4.74897 4.74896 v 4.74897 4.74896 h -4.74896 -4.74897 z"
       id="path5" />
    <path
       style="fill:#ffffff;fill-opacity:1;stroke:#ffffff;stroke-width:0.558702"
       d="m 140.23412,204.76416 v -4.74897 h 4.74896 4.74896 v 4.74897 4.74896 h -4.74896 -4.74896 z"
       id="path6" />
    <path
       style="fill:#ffffff;fill-opacity:1;stroke:#ffffff;stroke-width:0.558702"
       d="m 120.12086,204.76416 v -4.74897 h 4.74896 4.74896 v 4.74897 4.74896 h -4.74896 -4.74896 z"
       id="path7" />
    <path
       style="fill:#ffffff;fill-opacity:1;stroke:#ffffff;stroke-width:0.558702"
       d="m 130.17749,214.82079 v -4.74897 h 4.74896 4.74896 v 4.74897 4.74896 h -4.74896 -4.74896 z"
       id="path8" />
    <path
       style="fill:#ffffff;fill-opacity:1;stroke:#ffffff;stroke-width:0.558702"
       d="m 150.29074,214.82079 v -4.74897 h 4.74897 4.74896 v 4.74897 4.74896 h -4.74896 -4.74897 z"
       id="path9" />
    <path
       style="fill:#ffffff;fill-opacity:1;stroke:#ffffff;stroke-width:0.558702"
       d="m 170.404,214.82079 v -4.74897 h 4.74897 4.74896 v 4.74897 4.74896 h -4.74896 -4.74897 z"
       id="path10" />
  </g>
</svg>
