<?xml version="1.0" encoding="UTF-8" standalone="no"?>
<!-- Created with Inkscape (http://www.inkscape.org/) -->

<svg
   version="1.1"
   id="svg1"
   width="320"
   height="320"
   viewBox="0 0 320 320"
   sodipodi:docname="RADICCIO.svg"
   inkscape:version="1.3.2 (091e20ef0f, 2023-11-25)"
   xmlns:inkscape="http://www.inkscape.org/namespaces/inkscape"
   xmlns:sodipodi="http://sodipodi.sourceforge.net/DTD/sodipodi-0.dtd"
   xmlns="http://www.w3.org/2000/svg"
   xmlns:svg="http://www.w3.org/2000/svg">
  <defs
     id="defs1" />
  <sodipodi:namedview
     id="namedview1"
     pagecolor="#ffffff"
     bordercolor="#000000"
     borderopacity="0.25"
     inkscape:showpageshadow="2"
     inkscape:pageopacity="0.0"
     inkscape:pagecheckerboard="0"
     inkscape:deskcolor="#d1d1d1"
     inkscape:zoom="2.53125"
     inkscape:cx="159.80247"
     inkscape:cy="160"
     inkscape:window-width="1920"
     inkscape:window-height="1014"
     inkscape:window-x="0"
     inkscape:window-y="0"
     inkscape:window-maximized="1"
     inkscape:current-layer="g1" />
  <g
     inkscape:groupmode="layer"
     inkscape:label="Image"
     id="g1">
    <path
       style="fill:#000000"
       d="m 50,300 v -20 h 5 5 v -10 -10 h 5 5 v -10 -10 h 5 5 v -15 -15 h -5 -5 v -10 -10 h -5 -5 v -30 -30 h 5 5 v -10 -10 h 5 5 V 100 90 h 5 5 V 55 20 h 5 5 v -5 -5 h 15 15 v 5 5 h 5 5 v 30 30 h 5 5 v 5 5 h 10 10 v -5 -5 h 5 5 V 50 20 h 5 5 v -5 -5 h 15 15 v 5 5 h 5 5 v 35 35 h 5 5 v 10 10 h 5 5 v 10 10 h 5 5 v 30 30 h -5 -5 v 10 10 h -5 -5 v 15 15 h 5 5 v 10 10 h 5 5 v 10 10 h 5 5 v 20 20 H 160 50 Z M 150,185 v -5 h 5 5 v 5 5 h 5 5 v -5 -5 h -5 -5 v -5 -5 h 5 5 v -5 -5 h -15 -15 v 5 5 h 5 5 v 5 5 h -5 -5 v 5 5 h 5 5 z m -30,-20 v -5 h 5 5 v -15 -15 h -5 -5 v -5 -5 h -5 -5 v 5 5 h -5 -5 v 15 15 h 5 5 v 5 5 h 5 5 z m 90,0 v -5 h 5 5 v -15 -15 h -5 -5 v -5 -5 h -5 -5 v 5 5 h -5 -5 v 15 15 h 5 5 v 5 5 h 5 5 z M 120,60 V 30 h -5 -5 v 30 30 h 5 5 z m 90,0 V 30 h -5 -5 v 30 30 h 5 5 z"
       id="path1" />
    <path
       style="fill:#ffffff;stroke:#ffffff;stroke-width:0.395062"
       d="M 110.22222,164.93827 V 160 h -4.93827 -4.93827 v -14.81481 -14.81482 h 4.93827 4.93827 v -5.1358 -5.1358 h 4.74074 4.74074 v 5.1358 5.1358 h 5.13581 5.1358 V 145.18519 160 h -5.1358 -5.13581 v 4.93827 4.93827 h -4.74074 -4.74074 z"
       id="path2" />
    <path
       style="fill:#ffffff;stroke:#ffffff;stroke-width:0.395062"
       d="M 110.22222,59.851852 V 30.024691 h 4.74074 4.74074 v 29.827161 29.82716 h -4.74074 -4.74074 z"
       id="path3" />
    <path
       style="fill:#ffffff;stroke:#ffffff;stroke-width:0.395062"
       d="M 200.2963,59.851852 V 30.024691 h 4.74074 4.74074 v 29.827161 29.82716 h -4.74074 -4.74074 z"
       id="path4" />
    <path
       style="fill:#ffffff;stroke:#ffffff;stroke-width:0.395062"
       d="M 200.2963,164.93827 V 160 h -5.13581 -5.1358 v -14.81481 -14.81482 h 5.1358 5.13581 v -5.1358 -5.1358 h 4.74074 4.74074 v 5.1358 5.1358 h 4.93827 4.93827 V 145.18519 160 h -4.93827 -4.93827 v 4.93827 4.93827 h -4.74074 -4.74074 z"
       id="path5" />
    <path
       style="fill:#ffffff;stroke:#ffffff;stroke-width:0.395062"
       d="m 150.12346,174.81481 v -4.93827 h -4.93827 -4.93828 V 164.93827 160 h 14.81482 14.81481 v 4.93827 4.93827 H 164.93827 160 v 4.93827 4.93828 h -4.93827 -4.93827 z"
       id="path6" />
    <path
       style="fill:#ffffff;stroke:#ffffff;stroke-width:0.395062"
       d="m 160,184.88889 v -4.74074 h 4.93827 4.93827 v 4.74074 4.74074 H 164.93827 160 Z"
       id="path7" />
    <path
       style="fill:#ffffff;stroke:#ffffff;stroke-width:0.395062"
       d="m 140.24691,184.88889 v -4.74074 h 4.74074 4.74075 v 4.74074 4.74074 h -4.74075 -4.74074 z"
       id="path8" />
  </g>
</svg>
