<?xml version="1.0" encoding="UTF-8" standalone="no"?>
<!-- Created with Inkscape (http://www.inkscape.org/) -->

<svg
   version="1.1"
   id="svg1"
   width="320"
   height="320"
   viewBox="0 0 320 320"
   sodipodi:docname="SMOKESTACK.svg"
   inkscape:version="1.3.2 (091e20ef0f, 2023-11-25)"
   xmlns:inkscape="http://www.inkscape.org/namespaces/inkscape"
   xmlns:sodipodi="http://sodipodi.sourceforge.net/DTD/sodipodi-0.dtd"
   xmlns="http://www.w3.org/2000/svg"
   xmlns:svg="http://www.w3.org/2000/svg">
  <defs
     id="defs1" />
  <sodipodi:namedview
     id="namedview1"
     pagecolor="#ffffff"
     bordercolor="#000000"
     borderopacity="0.25"
     inkscape:showpageshadow="2"
     inkscape:pageopacity="0.0"
     inkscape:pagecheckerboard="0"
     inkscape:deskcolor="#d1d1d1"
     inkscape:zoom="2.53125"
     inkscape:cx="159.80247"
     inkscape:cy="160"
     inkscape:window-width="1920"
     inkscape:window-height="1014"
     inkscape:window-x="0"
     inkscape:window-y="0"
     inkscape:window-maximized="1"
     inkscape:current-layer="g1" />
  <g
     inkscape:groupmode="layer"
     inkscape:label="Image"
     id="g1">
    <path
       style="fill:#000000"
       d="m 50,300 v -20 h 5 5 v -10 -10 h 5 5 v -10 -10 h 5 5 v -15 -15 h -5 -5 v -10 -10 h -5 -5 v -30 -30 h 5 5 v -5 -5 H 55 40 v -5 -5 h -5 -5 v -5 -5 H 25 20 V 95 90 H 15 10 V 70 50 h 5 5 v -5 -5 h 5 5 v -5 -5 h 5 5 v -5 -5 h 25 25 v 5 5 h 5 5 v 5 5 h 5 5 v 5 5 h 5 5 v 10 10 h 5 5 v 5 5 h 30 30 v -5 -5 h 5 5 V 60 50 h 5 5 v -5 -5 h 5 5 v -5 -5 h 5 5 v -5 -5 h 25 25 v 5 5 h 5 5 v 5 5 h 5 5 v 5 5 h 5 5 v 20 20 h -5 -5 v 5 5 h -5 -5 v 5 5 h -5 -5 v 5 5 h -15 -15 v 5 5 h 5 5 v 30 30 h -5 -5 v 10 10 h -5 -5 v 15 15 h 5 5 v 10 10 h 5 5 v 10 10 h 5 5 v 20 20 H 160 50 Z m 90,-65 v -5 h 5 5 v -5 -5 h 10 10 v 5 5 h 5 5 v 5 5 h 10 10 v -5 -5 h -10 -10 v -5 -5 h -5 -5 v -10 -10 h 5 5 v -5 -5 h 10 10 v -5 -5 h -10 -10 v 5 5 h -5 -5 v 5 5 h -10 -10 v -5 -5 h -5 -5 v -5 -5 h -10 -10 v 5 5 h 10 10 v 5 5 h 5 5 v 10 10 h -5 -5 v 5 5 h -10 -10 v 5 5 h 10 10 z m -30,-80 v -5 h 5 5 v -10 -10 h -5 -5 v -5 -5 h -5 -5 v 5 5 h -5 -5 v 10 10 h 5 5 v 5 5 h 5 5 z m 100,0 v -5 h 5 5 v -10 -10 h -5 -5 v -5 -5 h -5 -5 v 5 5 h -5 -5 v 10 10 h 5 5 v 5 5 h 5 5 z M 80,95 v -5 h 5 5 v -5 -5 h 5 5 V 70 60 H 95 90 V 55 50 H 85 80 V 45 40 H 65 50 v 5 5 h -5 -5 v 5 5 h -5 -5 v 10 10 h 5 5 v 5 5 h 5 5 v 5 5 h 15 15 z m 190,0 v -5 h 5 5 v -5 -5 h 5 5 V 70 60 h -5 -5 v -5 -5 h -5 -5 v -5 -5 h -15 -15 v 5 5 h -5 -5 v 5 5 h -5 -5 v 10 10 h 5 5 v 5 5 h 5 5 v 5 5 h 15 15 z"
       id="path1" />
    <path
       style="fill:#ffffff;stroke:#ffffff;stroke-width:0.395062"
       d="m 50.17284,94.814815 v -5.135803 h -4.938272 -4.938272 v -4.938271 -4.938272 h -5.135802 -5.135803 v -9.876543 -9.876543 h 5.135803 5.135802 V 55.111111 50.17284 h 4.938272 4.938272 v -4.938272 -4.938272 h 14.814814 14.814815 v 4.938272 4.938272 h 4.938272 4.938271 v 4.938271 4.938272 h 5.135803 5.135802 v 9.876543 9.876543 h -5.135802 -5.135803 v 4.938272 4.938271 h -4.938271 -4.938272 v 5.135803 5.135802 H 64.987654 50.17284 Z"
       id="path2" />
    <path
       style="fill:#ffffff;stroke:#ffffff;stroke-width:0.395062"
       d="m 240.19753,94.814815 v -5.135803 h -4.93827 -4.93827 v -4.938271 -4.938272 h -5.1358 -5.13581 v -9.876543 -9.876543 h 5.13581 5.1358 V 55.111111 50.17284 h 4.93827 4.93827 v -4.938272 -4.938272 h 14.81482 14.81481 v 4.938272 4.938272 h 4.93827 4.93827 v 4.938271 4.938272 h 5.13581 5.1358 v 9.876543 9.876543 h -5.1358 -5.13581 v 4.938272 4.938271 h -4.93827 -4.93827 v 5.135803 5.135802 h -14.81481 -14.81482 z"
       id="path3" />
    <path
       style="fill:#ffffff;stroke:#ffffff;stroke-width:0.395062"
       d="m 200.2963,154.8642 v -5.1358 h -5.13581 -5.1358 v -9.67902 -9.67901 h 5.1358 5.13581 v -5.1358 -5.1358 h 4.74074 4.74074 v 5.1358 5.1358 h 4.93827 4.93827 v 9.67901 9.67902 h -4.93827 -4.93827 V 154.8642 160 h -4.74074 -4.74074 z"
       id="path4" />
    <path
       style="fill:#ffffff;stroke:#ffffff;stroke-width:0.395062"
       d="m 100.34568,154.8642 v -5.1358 h -5.135803 -5.135803 v -9.67902 -9.67901 h 5.135803 5.135803 v -5.1358 -5.1358 h 4.74074 4.74074 v 5.1358 5.1358 h 4.93827 4.93827 v 9.67901 9.67902 h -4.93827 -4.93827 V 154.8642 160 h -4.74074 -4.74074 z"
       id="path5" />
    <path
       style="fill:#ffffff;stroke:#ffffff;stroke-width:0.395062"
       d="m 120.09877,184.88889 v -4.74074 h 9.87654 9.87654 v 4.74074 4.74074 h -9.87654 -9.87654 z"
       id="path6" />
    <path
       style="fill:#ffffff;stroke:#ffffff;stroke-width:0.395062"
       d="m 140.24691,194.96296 v -4.93827 h 4.74074 4.74075 v 4.93827 4.93827 h -4.74075 -4.74074 z"
       id="path7" />
    <path
       style="fill:#ffffff;stroke:#ffffff;stroke-width:0.395062"
       d="M 150.12346,209.97531 V 200.2963 H 160 h 9.87654 v 9.67901 9.67901 H 160 150.12346 Z"
       id="path8" />
    <path
       style="fill:#ffffff;stroke:#ffffff;stroke-width:0.395062"
       d="m 170.2716,194.96296 v -4.93827 h 4.74075 4.74074 v 4.93827 4.93827 h -4.74074 -4.74075 z"
       id="path9" />
    <path
       style="fill:#ffffff;stroke:#ffffff;stroke-width:0.395062"
       d="m 180.14815,184.88889 v -4.74074 h 9.87654 9.87654 v 4.74074 4.74074 h -9.87654 -9.87654 z"
       id="path10" />
    <path
       style="fill:#ffffff;stroke:#ffffff;stroke-width:0.395062"
       d="m 170.2716,224.98765 v -4.93827 h 4.74075 4.74074 v 4.93827 4.93828 h -4.74074 -4.74075 z"
       id="path11" />
    <path
       style="fill:#ffffff;stroke:#ffffff;stroke-width:0.395062"
       d="m 180.14815,235.06173 v -4.74074 h 9.87654 9.87654 v 4.74074 4.74074 h -9.87654 -9.87654 z"
       id="path12" />
    <path
       style="fill:#ffffff;stroke:#ffffff;stroke-width:0.395062"
       d="m 140.24691,224.98765 v -4.93827 h 4.74074 4.74075 v 4.93827 4.93828 h -4.74075 -4.74074 z"
       id="path13" />
    <path
       style="fill:#ffffff;stroke:#ffffff;stroke-width:0.395062"
       d="m 120.09877,235.06173 v -4.74074 h 9.87654 9.87654 v 4.74074 4.74074 h -9.87654 -9.87654 z"
       id="path14" />
  </g>
</svg>
